# xmcd
#
# Track frame offsets:
#	150
#	12077
#	21872
#	31830
#	43075
#	52071
#	65042
#	76780
#	86918
#	99709
#	110654
#	123499
#	133809
#	144930
#	157908
#
# Disc length: 2273 seconds
#
# Revision: 1
# Processed by: cddbd v1.5.2PL0 Copyright (c) Steve Scherf et al.
# Submitted via: EasyCDDAExtractor 16.0.1.1
#
DISCID=c908df0f
DTITLE=Cari Lee and The Saddle-ites - Brought to You Via Saddle-ite
DYEAR=2006
DGENRE=Hillbilly
TTITLE0=From Monday On
TTITLE1=Keep Me Company
TTITLE2=We Tied The Knot
TTITLE3=I'm Hoping That You're Hoping
TTITLE4=It's Alright By Me
TTITLE5=When Your Way Gets Dark
TTITLE6=Life Is Sweet
TTITLE7=Nine Little Kisses
TTITLE8=After All
TTITLE9=Heaven Only Knows
TTITLE10=Throw A Little Wood On The Fire
TTITLE11=Brown Eyed Dream
TTITLE12=Did You Ever Come Home
TTITLE13=Are You Lonesome?
TTITLE14=It's A Doggone Shame
EXTD=YEAR: 2006
EXTT0=
EXTT1=
EXTT2=
EXTT3=
EXTT4=
EXTT5=
EXTT6=
EXTT7=
EXTT8=
EXTT9=
EXTT10=
EXTT11=
EXTT12=
EXTT13=
EXTT14=
PLAYORDER=
